<mxfile host="app.diagrams.net" agent="Mozilla/5.0 (X11; Linux x86_64) AppleWebKit/537.36 (KHTML, like Gecko) Chrome/129.0.0.0 Safari/537.36" version="24.7.17">
  <diagram name="Page-1" id="Z83zEJ15DWKZfaFEz4YE">
    <mxGraphModel dx="1434" dy="688" grid="1" gridSize="10" guides="1" tooltips="1" connect="1" arrows="1" fold="1" page="1" pageScale="1" pageWidth="850" pageHeight="1100" math="0" shadow="0">
      <root>
        <mxCell id="0" />
        <mxCell id="1" parent="0" />
        <mxCell id="K0d8BCokQG8zKTT9BX28-1" value="Actor" style="shape=umlActor;verticalLabelPosition=bottom;verticalAlign=top;html=1;" parent="1" vertex="1">
          <mxGeometry x="90" y="100" width="30" height="60" as="geometry" />
        </mxCell>
        <mxCell id="K0d8BCokQG8zKTT9BX28-2" value="Actor" style="shape=umlActor;verticalLabelPosition=bottom;verticalAlign=top;html=1;" parent="1" vertex="1">
          <mxGeometry x="595" y="249.95" width="30" height="60" as="geometry" />
        </mxCell>
        <mxCell id="K0d8BCokQG8zKTT9BX28-5" value="View Items" style="ellipse;whiteSpace=wrap;html=1;" parent="1" vertex="1">
          <mxGeometry x="240" y="80" width="140" height="70" as="geometry" />
        </mxCell>
        <mxCell id="K0d8BCokQG8zKTT9BX28-6" value="Mange inventory" style="ellipse;whiteSpace=wrap;html=1;" parent="1" vertex="1">
          <mxGeometry x="400" y="187.41000000000003" width="140" height="70" as="geometry" />
        </mxCell>
        <mxCell id="K0d8BCokQG8zKTT9BX28-7" value="Make purchase" style="ellipse;whiteSpace=wrap;html=1;" parent="1" vertex="1">
          <mxGeometry x="230" y="170" width="140" height="70" as="geometry" />
        </mxCell>
        <mxCell id="K0d8BCokQG8zKTT9BX28-8" value="Checkout" style="ellipse;whiteSpace=wrap;html=1;" parent="1" vertex="1">
          <mxGeometry x="240" y="360" width="140" height="70" as="geometry" />
        </mxCell>
        <mxCell id="K0d8BCokQG8zKTT9BX28-9" value="Manage client&amp;nbsp;&lt;div&gt;registration&lt;/div&gt;" style="ellipse;whiteSpace=wrap;html=1;" parent="1" vertex="1">
          <mxGeometry x="390" y="300" width="140" height="70" as="geometry" />
        </mxCell>
        <mxCell id="K0d8BCokQG8zKTT9BX28-11" value="Add items to cart" style="ellipse;whiteSpace=wrap;html=1;" parent="1" vertex="1">
          <mxGeometry x="230" y="260" width="140" height="70" as="geometry" />
        </mxCell>
        <mxCell id="K0d8BCokQG8zKTT9BX28-17" value="" style="line;strokeWidth=2;html=1;rotation=15;" parent="1" vertex="1">
          <mxGeometry x="120.68" y="164.82" width="120" height="10" as="geometry" />
        </mxCell>
        <mxCell id="K0d8BCokQG8zKTT9BX28-18" value="" style="line;strokeWidth=2;html=1;rotation=55;" parent="1" vertex="1">
          <mxGeometry x="63.45" y="274.95" width="230" height="10" as="geometry" />
        </mxCell>
        <mxCell id="K0d8BCokQG8zKTT9BX28-21" value="" style="line;strokeWidth=2;html=1;rotation=30;" parent="1" vertex="1">
          <mxGeometry x="109.03" y="217.41" width="168.98" height="10" as="geometry" />
        </mxCell>
        <mxCell id="K0d8BCokQG8zKTT9BX28-22" value="" style="line;strokeWidth=2;html=1;rotation=-15;" parent="1" vertex="1">
          <mxGeometry x="120.68" y="100" width="120" height="44.82" as="geometry" />
        </mxCell>
        <mxCell id="K0d8BCokQG8zKTT9BX28-26" value="" style="line;strokeWidth=2;html=1;rotation=-15;" parent="1" vertex="1">
          <mxGeometry x="501.28" y="274.84" width="100" height="44.82" as="geometry" />
        </mxCell>
        <mxCell id="K0d8BCokQG8zKTT9BX28-27" value="" style="line;strokeWidth=2;html=1;rotation=30;" parent="1" vertex="1">
          <mxGeometry x="532.01" y="209.91" width="70" height="44.82" as="geometry" />
        </mxCell>
        <mxCell id="SreuC9zSYin8scsG8nIH-1" value="" style="swimlane;startSize=0;" parent="1" vertex="1">
          <mxGeometry x="210" y="40" width="350" height="580" as="geometry" />
        </mxCell>
        <mxCell id="SreuC9zSYin8scsG8nIH-2" value="Online shopping system" style="text;html=1;align=center;verticalAlign=middle;resizable=0;points=[];autosize=1;strokeColor=none;fillColor=none;" parent="SreuC9zSYin8scsG8nIH-1" vertex="1">
          <mxGeometry x="190" y="10" width="150" height="30" as="geometry" />
        </mxCell>
      </root>
    </mxGraphModel>
  </diagram>
</mxfile>
